<svg width="227" height="360" viewBox="0 0 227 360" fill="none" xmlns="http://www.w3.org/2000/svg">
<path d="M153.05 10.7699C153.05 16.7179 143.921 21.5398 137.973 21.5398C132.025 21.5398 125.049 16.7179 125.049 10.7699C125.049 4.82184 136.333 0 142.281 0C148.229 0 153.05 4.82184 153.05 10.7699Z" fill="black"/>
<path d="M75.5072 359.717C71.1993 361.871 77.6612 351.101 88.4311 348.947C99.201 346.793 133.665 346.793 133.665 346.793C169.286 345.361 178.476 343.887 181.052 340.331C181.053 338.178 189.668 327.405 191.822 340.331C191.822 348.944 177.922 352.769 142.281 353.255C125.479 354.179 79.8152 357.563 75.5072 359.717Z" fill="black"/>
<path d="M187.514 277.863C187.514 271.401 170.282 271.401 163.82 260.631C162.246 255.908 165.974 254.169 198.284 249.861C215.516 243.4 215.516 239.092 215.516 232.63H226.286C223.369 252.802 193.976 258.477 185.36 258.477C176.744 258.477 175.737 259.484 174.59 260.631C174.59 264.939 193.976 271.401 193.976 277.863C193.976 284.325 191.822 286.479 183.206 288.633C163.82 292.941 165.974 295.095 172.436 297.249L185.36 301.557C187.738 302.35 189.668 303.711 187.514 305.865C185.36 308.019 176.744 312.327 176.744 316.635C176.744 320.943 189.668 327.407 191.822 340.331L181.052 340.331C180.803 330.601 168.128 320.943 168.128 316.635C168.128 312.327 172.436 308.019 176.744 305.865C181.052 303.711 168.128 301.557 163.82 299.403C159.512 297.249 157.358 295.095 161.666 290.787C165.974 286.479 187.514 284.325 187.514 277.863Z" fill="black"/>
<path d="M118.587 45.2341C114.279 56.0045 26.1214 312.484 30.2737 316.635C32.4276 318.789 41.0435 312.327 47.5055 299.403L135.819 45.2341C140.127 32.3103 122.895 34.4637 118.587 45.2341Z" fill="black"/>
<path d="M157.358 90.4671C97.2266 88.5405 6.57994 88.3131 4.42598 88.3131C2.27201 88.3131 -3.83357 79.6972 3.52717 79.6972H157.358C196.13 79.6972 224.132 99.083 226.286 140.009L226.286 232.63H215.516V140.009C213.174 107.989 198.284 94.775 157.358 90.4671Z" fill="black"/>
</svg>
