<svg width="600" height="515" viewBox="0 0 600 515" fill="none" xmlns="http://www.w3.org/2000/svg">
<circle cx="543.663" cy="171.831" r="35.2113" fill="white"/>
<circle cx="76.0565" cy="319.719" r="28.169" fill="white"/>
<circle cx="562.501" cy="475.5" r="19.5" fill="white"/>
<circle cx="10.5634" cy="348.592" r="10.5634" fill="white"/>
<circle cx="168.31" cy="11.9718" r="11.9718" fill="white"/>
<circle cx="59.8595" cy="110.564" r="10.5634" fill="white"/>
<circle cx="589.437" cy="89.4369" r="10.5634" fill="white"/>
<circle cx="316.902" cy="267.606" r="246.479" fill="#7D5A3C"/>
<path d="M357.05 98.7699C357.05 104.718 347.921 109.54 341.973 109.54C336.025 109.54 329.049 104.718 329.049 98.7699C329.049 92.8218 340.333 88 346.281 88C352.229 88 357.05 92.8218 357.05 98.7699Z" fill="white"/>
<path d="M279.507 447.717C275.199 449.871 281.661 439.101 292.431 436.947C303.201 434.793 337.665 434.793 337.665 434.793C373.286 433.361 382.476 431.887 385.052 428.331C385.053 426.178 393.668 415.405 395.822 428.331C395.822 436.944 381.922 440.769 346.281 441.255C329.479 442.179 283.815 445.563 279.507 447.717Z" fill="white"/>
<path d="M391.514 365.863C391.514 359.401 374.282 359.401 367.82 348.631C366.246 343.908 369.974 342.169 402.284 337.861C419.516 331.4 419.516 327.092 419.516 320.63H430.286C427.369 340.802 397.976 346.477 389.36 346.477C380.744 346.477 379.737 347.484 378.59 348.631C378.59 352.939 397.976 359.401 397.976 365.863C397.976 372.325 395.822 374.479 387.206 376.633C367.82 380.941 369.974 383.095 376.436 385.249L389.36 389.557C391.738 390.35 393.668 391.711 391.514 393.865C389.36 396.019 380.744 400.327 380.744 404.635C380.744 408.943 393.668 415.407 395.822 428.331L385.052 428.331C384.803 418.601 372.128 408.943 372.128 404.635C372.128 400.327 376.436 396.019 380.744 393.865C385.052 391.711 372.128 389.557 367.82 387.403C363.512 385.249 361.358 383.095 365.666 378.787C369.974 374.479 391.514 372.325 391.514 365.863Z" fill="white"/>
<path d="M322.587 133.234C318.279 144.004 230.121 400.484 234.274 404.635C236.428 406.789 245.044 400.327 251.505 387.403L339.819 133.234C344.127 120.31 326.895 122.464 322.587 133.234Z" fill="white"/>
<path d="M361.358 178.467C301.227 176.54 210.58 176.313 208.426 176.313C206.272 176.313 200.166 167.697 207.527 167.697H361.358C400.13 167.697 428.132 187.083 430.286 228.009L430.286 320.63H419.516V228.009C417.174 195.989 402.284 182.775 361.358 178.467Z" fill="white"/>
</svg>
