<svg width="53" height="84" viewBox="0 0 53 84" fill="none" xmlns="http://www.w3.org/2000/svg">
<path d="M36 2.5C36 3.88071 33.8807 5 32.5 5C31.1193 5 29.5 3.88071 29.5 2.5C29.5 1.11929 32.1193 0 33.5 0C34.8807 0 36 1.11929 36 2.5Z" fill="white"/>
<path d="M18 83.5006C17 84.0006 18.5 81.5006 21 81.0006C23.5 80.5005 31.5 80.5005 31.5 80.5005C39.7688 80.1682 41.9019 79.8261 42.5 79.0006C42.5001 78.5007 44.5 76.0001 45 79.0006C45 81 41.7735 81.8878 33.5 82.0005C29.5998 82.2152 19 83.0006 18 83.5006Z" fill="white"/>
<path d="M44 64.5C44 63 40 63 38.5 60.5C38.1346 59.4037 39 59 46.5 58C50.5 56.5 50.5 55.5 50.5 54H53C52.3229 58.6825 45.5 60 43.5 60C41.5 60 41.2662 60.2338 41 60.5C41 61.5 45.5 63 45.5 64.5C45.5 66 45 66.5 43 67C38.5 68 39 68.5 40.5 69L43.5 70C44.052 70.184 44.5 70.5 44 71C43.5 71.5 41.5 72.5 41.5 73.5C41.5 74.5 44.5 76.0006 45 79.0006L42.5 79.0006C42.4422 76.7421 39.5 74.5 39.5 73.5C39.5 72.5 40.5 71.5 41.5 71C42.5 70.5 39.5 70 38.5 69.5C37.5 69 37 68.5 38 67.5C39 66.5 44 66 44 64.5Z" fill="white"/>
<path d="M28 10.5001C27 13.0002 6.53613 72.5364 7.49999 73.5001C7.99999 74 9.99999 72.5 11.5 69.5L32 10.5001C33 7.50016 29 8 28 10.5001Z" fill="white"/>
<path d="M37 21C23.0417 20.5528 2 20.5 1.50001 20.5C1.00001 20.5 -0.41727 18.5 1.29137 18.5H37C46 18.5 52.5 23 53 32.5L53 54H50.5V32.5C49.9563 25.0672 46.5 22 37 21Z" fill="white"/>
</svg>
