<svg width="54" height="30" viewBox="0 0 54 30" fill="none" xmlns="http://www.w3.org/2000/svg">
<g clip-path="url(#clip0)">
<path d="M-3.66392 -0.163086V30.1675H56.9972V-0.163086H-3.66392Z" fill="#012169"/>
<path d="M-3.66392 -0.163086L56.9972 30.1675L-3.66392 -0.163086ZM56.9972 -0.163086L-3.66392 30.1647L56.9972 -0.163086Z" fill="black"/>
<path d="M55.6418 32.8802L26.6668 18.3913L-2.30818 32.8802L-5.01929 27.4496L19.8835 14.9996L-5.01929 2.54964L-2.30818 -2.88092L26.6668 11.608L55.6418 -2.88092L58.3529 2.54964L33.4502 14.9996L58.3529 27.4496L55.6418 32.8802Z" fill="white"/>
<path d="M-3.66392 -0.163086L56.9972 30.1675L-3.66392 -0.163086ZM56.9972 -0.163086L-3.66392 30.1647L56.9972 -0.163086Z" fill="black"/>
<path d="M56.0917 31.9743L26.6666 17.2576L-2.75835 31.9743L-4.56947 28.3548L22.1472 14.9993L-4.56947 1.64374L-2.75835 -1.97571L26.6666 12.741L56.0917 -1.97571L57.9028 1.64374L31.1861 14.9993L57.9028 28.3548L56.0917 31.9743Z" fill="#C8102E"/>
<path d="M26.6666 -0.163086V30.1675V-0.163086ZM-3.66392 15.0008H56.9972H-3.66392Z" fill="black"/>
<path d="M31.7222 30.1647H21.6111V20.0564H-3.66392V9.94525H21.6111V-0.163086H31.7222V9.94525H56.9972V20.0564H31.7222V30.1647Z" fill="white"/>
<path d="M26.6666 -0.163086V30.1675V-0.163086ZM-3.66392 15.0008H56.9972H-3.66392Z" fill="black"/>
<path d="M29.7 30.1647H23.6333V18.0341H-3.66392V11.9675H23.6333V-0.163086H29.7V11.9675H56.9972V18.0341H29.7V30.1647Z" fill="#C8102E"/>
</g>
<defs>
<clipPath id="clip0">
<rect width="53.3333" height="30" fill="white"/>
</clipPath>
</defs>
</svg>
