<?xml version="1.0" encoding="utf-8"?>
<svg viewBox="0 0 600 600" fill="none" xmlns="http://www.w3.org/2000/svg">
  <circle cx="248.851" cy="248.979" r="246.479" fill="#7D5A3E" style="" transform="matrix(1.208992, 0, 0, 1.206656, -0.495728, -0.516641)"/>
  <path d="M 349.977 46.611 C 349.977 55.412 335.122 62.546 325.442 62.546 C 315.764 62.546 304.413 55.412 304.413 46.611 C 304.413 37.81 322.773 30.677 332.454 30.677 C 342.131 30.677 349.977 37.81 349.977 46.611 Z" fill="white" style=""/>
  <path d="M 223.791 562.866 C 216.781 566.053 227.298 550.118 244.823 546.933 C 262.35 543.744 318.432 543.744 318.432 543.744 C 376.399 541.627 391.353 539.446 395.545 534.185 C 395.546 531 409.565 515.062 413.071 534.185 C 413.071 546.928 390.451 552.585 332.454 553.306 C 305.112 554.674 230.803 559.68 223.791 562.866 Z" fill="white" style=""/>
  <path d="M 406.062 441.765 C 406.062 432.206 378.019 432.206 367.503 416.273 C 364.943 409.285 371.009 406.711 423.585 400.338 C 451.627 390.78 451.627 384.406 451.627 374.845 L 469.154 374.845 C 464.407 404.689 416.576 413.084 402.554 413.084 C 388.535 413.084 386.896 414.575 385.029 416.273 C 385.029 422.646 416.576 432.206 416.576 441.765 C 416.576 451.326 413.071 454.512 399.05 457.7 C 367.503 464.073 371.009 467.259 381.522 470.446 L 402.554 476.821 C 406.425 477.994 409.565 480.008 406.062 483.194 C 402.554 486.381 388.535 492.754 388.535 499.128 C 388.535 505.502 409.565 515.064 413.071 534.185 L 395.545 534.185 C 395.14 519.789 374.512 505.502 374.512 499.128 C 374.512 492.754 381.522 486.381 388.535 483.194 C 395.545 480.008 374.512 476.821 367.503 473.633 C 360.493 470.446 356.987 467.259 363.997 460.886 C 371.009 454.512 406.062 451.326 406.062 441.765 Z" fill="white" style=""/>
  <path d="M 293.896 97.6 C 286.886 113.533 143.427 492.988 150.185 499.128 C 153.691 502.315 167.711 492.754 178.225 473.633 L 321.938 97.6 C 328.948 78.479 300.906 81.667 293.896 97.6 Z" fill="white" style=""/>
  <path d="M 356.987 164.519 C 259.136 161.668 111.627 161.333 108.123 161.333 C 104.618 161.333 94.682 148.586 106.66 148.586 L 356.987 148.586 C 420.081 148.586 465.647 177.268 469.154 237.816 L 469.154 374.845 L 451.627 374.845 L 451.627 237.816 C 447.816 190.445 423.585 170.894 356.987 164.519 Z" fill="white" style=""/>
</svg>