<svg xmlns="http://www.w3.org/2000/svg" width="612" height="97.458" viewBox="0 347.271 612 97.458"><path fill="#FFF" d="M68.517 387.874h24.531c-1.148-6.103-5.196-9.729-10.937-9.729-6.464.061-11.419 3.626-13.594 9.729m15.769 37.158c-16.857 0-29.062-12.205-29.062-29.063 0-17.159 11.358-29.183 27.552-29.183 16.494 0 23.865 13.051 23.865 25.98 0 1.269-.181 3.505-.241 3.746l-.241 2.538H68.155c1.269 8.64 7.553 14.198 16.313 14.198 7.371 0 12.446-4.772 12.99-5.316l2.478-2.599 6.525 10.091-1.692 1.631c-.181.304-8.035 7.977-20.483 7.977m-71.597-46.705h13.353c5.438 0 9.003-3.686 9.003-9.365s-3.384-9.063-9.063-9.063H12.689v18.428zm0 33.473h14.259c6.768 0 10.755-4.048 10.755-10.814 0-6.646-4.29-10.997-10.876-10.997H12.689V411.8zm-3.022 11.963H.061v-75.708H1.39l.785-.061h24.107c13.052 0 21.813 8.217 21.813 20.482 0 6.042-2.176 11.238-6.163 14.863 5.68 3.626 8.942 10.151 8.942 17.945 0 13.474-9.547 22.477-23.806 22.477H9.667v.002zm477.565.061h-8.339c-5.86 0-8.941-3.082-8.941-8.942v-42.718l12.507-7.189v47.188h4.773v11.661zm-10.755-61.206c-4.229 0-7.674-3.444-7.674-7.674s3.444-7.673 7.674-7.673c4.229 0 7.673 3.443 7.673 7.673s-3.445 7.674-7.673 7.674m-250.142 61.206h-8.338c-5.86 0-8.942-3.082-8.942-8.942v-42.657l12.567-7.189v47.188h4.773l-.06 11.6zm-10.694-61.206c-4.229 0-7.673-3.444-7.673-7.674s3.443-7.673 7.673-7.673 7.674 3.443 7.674 7.673-3.445 7.674-7.674 7.674m-31.419 61.206h-12.507v-55.89h12.387v8.338c3.202-5.316 7.976-8.821 12.99-8.821 1.57 0 3.081.303 3.384.363l2.175.483v12.325l-3.323-.544c-.182 0-1.088-.181-1.994-.181-5.256 0-9.788 4.169-11.781 10.875-.847 2.659-1.27 5.74-1.27 8.942l-.061 24.11zm364.518 0h-8.338c-5.861 0-8.942-3.082-8.942-8.942v-24.048c0-9.063-1.934-11.963-7.976-11.963-7.13 0-13.534 4.954-15.468 12.023-.483 1.632-.725 3.625-.725 6.042v26.888h-12.508v-55.769l2.84-.121h9.668v6.707c3.322-3.867 8.882-7.854 17.038-7.854 13.232 0 19.697 7.311 19.697 22.295v23.142h4.773l-.059 11.6zm-260.413 0h-8.339c-5.86 0-8.941-3.082-8.941-8.942v-24.048c0-9.063-1.934-11.963-7.976-11.963-7.13 0-13.534 4.954-15.468 12.023-.483 1.632-.726 3.625-.726 6.042v26.888H234.37v-55.769l2.84-.121h9.667v6.707c3.323-3.867 8.882-7.854 17.039-7.854 13.231 0 19.697 7.311 19.697 22.295v23.142h4.772v11.601h-.058zm28.457-45.135c-8.096 0-12.567 5.74-12.567 16.193 0 10.271 5.257 16.857 13.474 16.857 8.036 0 12.085-5.619 12.085-16.737-.061-11.297-4.049-16.313-12.992-16.313m-1.63 66.04c-5.921 0-12.205-1.511-17.643-4.29l-2.417-1.208 5.015-10.997 2.719 1.511c.061 0 5.68 3.143 12.145 3.143 9.426 0 14.683-4.593 14.683-12.87v-.362c-3.444 2.598-7.795 3.927-12.99 3.927-14.804 0-25.195-11.722-25.195-28.579 0-17.099 9.667-28.155 24.591-28.155 6.586 0 10.936 2.235 14.018 5.256v-4.169h12.145l-.061 51.901c-.003 18.367-13.96 24.892-27.01 24.892m262.345-20.543c-6.103 0-20.301-2.114-20.301-21.51v-23.322h-6.586v-11.359h6.646v-9.305l12.446-7.189v16.494h12.567v11.42h-12.567v22.657c0 6.889 2.84 10.393 8.398 10.393.846 0 1.39-.121 1.571-.121l3.564-.785v12.023l-2.417.424c.003 0-1.387.18-3.321.18m-142.894-45.497c-9.365 0-16.676 7.432-16.676 16.979 0 9.849 7.311 17.582 16.676 17.582 9.305 0 16.556-7.733 16.556-17.582-.001-9.547-7.312-16.979-16.556-16.979m0 46.343c-16.495 0-29.364-12.93-29.364-29.364 0-16.192 12.869-28.881 29.304-28.881 16.495 0 29.364 12.688 29.364 28.881-.06 16.434-12.93 29.364-29.304 29.364m-67.429-40.603h12.386c7.794 0 12.446-4.652 12.446-12.386 0-7.553-4.592-12.085-12.386-12.085h-12.446v24.471zm0 39.395h-12.749v-75.768h25.98c14.44 0 24.471 9.849 24.471 23.987 0 14.319-10.091 24.289-24.471 24.289h-13.292l.061 27.492zm-220.958-26.042c-15.528 0-22.477 2.84-22.477 9.185 0 3.564 3.323 7.13 9.546 7.13 8.339 0 12.749-6.103 12.749-16.435l.182.12zm-14.139 27.25c-9.909 0-19.878-6.103-19.878-17.703 0-20.12 25.014-20.181 33.412-20.181-.423-5.921-3.323-8.52-9.547-8.52-7.068 0-12.325 4.109-12.325 4.17l-2.538 2.054-6.162-10.029 1.813-1.571c.302-.242 7.552-6.404 19.696-6.404 13.716 0 21.57 8.035 21.57 22.113v23.322h5.922v11.602h-9.245c-4.894 0-7.129-2.356-8.096-5.499-3.142 3.383-7.795 6.646-14.622 6.646m472.731-12.084c-.423-.241-1.148-.362-2.055-.362h-1.45v3.504h1.571c.725 0 1.269-.061 1.632-.241.664-.242 1.026-.786 1.026-1.511-.06-.665-.301-1.149-.724-1.39m-1.813-1.511c1.208 0 2.114.121 2.658.362 1.027.424 1.511 1.27 1.511 2.478 0 .846-.303 1.511-.967 1.934-.362.241-.785.362-1.39.483.785.121 1.329.423 1.691.967s.544 1.027.544 1.511v1.451c0 .241.061.423.061.483l.061.121h-1.632v-.242l-.06-.303v-.785c0-1.147-.303-1.873-.907-2.235-.362-.182-.966-.302-1.933-.302h-1.33v3.807h-1.691v-9.729h3.384v-.001zm-5.257-.483c-1.45 1.511-2.235 3.263-2.235 5.378 0 2.114.725 3.927 2.235 5.438 1.45 1.511 3.263 2.236 5.377 2.236 2.115 0 3.928-.726 5.378-2.236s2.235-3.323 2.235-5.438c0-2.115-.725-3.928-2.235-5.378-1.511-1.511-3.263-2.235-5.378-2.235-2.053 0-3.866.724-5.377 2.235m11.662 11.662c-1.752 1.752-3.807 2.598-6.284 2.598s-4.531-.846-6.283-2.598c-1.691-1.753-2.599-3.808-2.599-6.284 0-2.417.847-4.532 2.599-6.224 1.691-1.691 3.807-2.598 6.224-2.598 2.477 0 4.531.846 6.283 2.598 1.752 1.691 2.599 3.807 2.599 6.224.059 2.417-.787 4.531-2.539 6.284"/></svg>