<svg xmlns="http://www.w3.org/2000/svg" viewBox="0 0 919.99995 200.00003"><path d="M855.963 159.337c0-12.962 10.524-23.478 23.48-23.478 12.96 0 23.47 10.515 23.47 23.477s-10.51 23.472-23.47 23.472c-12.956 0-23.48-10.51-23.48-23.473" fill="#86bc24"/><path d="M107.195 97.16c0-14.87-2.873-25.904-8.62-33.092-5.755-7.18-14.47-10.767-26.19-10.767H59.92v90.94h9.538c13.016 0 22.554-3.86 28.628-11.605 6.066-7.73 9.11-19.558 9.11-35.475m44.456-1.55c0 27.093-7.282 47.97-21.848 62.623-14.565 14.66-35.04 21.99-61.434 21.99H17.086V17.88H71.95c25.45 0 45.096 6.664 58.94 19.986 13.84 13.33 20.762 32.568 20.762 57.745M293.71 180.222h40.808V17.198H293.71v163.024zM391.847 119.413c0 10.394 1.358 18.322 4.07 23.77 2.717 5.456 7.268 8.18 13.667 8.18 6.332 0 10.81-2.724 13.418-8.18 2.608-5.448 3.906-13.376 3.906-23.77 0-10.34-1.318-18.14-3.96-23.403-2.65-5.28-7.168-7.922-13.574-7.922-6.264 0-10.74 2.63-13.458 7.86-2.71 5.238-4.07 13.057-4.07 23.465m76.597 0c0 19.803-5.19 35.252-15.598 46.325-10.4 11.08-24.96 16.624-43.675 16.624-17.948 0-32.235-5.666-42.84-16.998-10.618-11.33-15.924-26.644-15.924-45.95 0-19.743 5.198-35.083 15.605-46.02 10.408-10.938 25-16.406 43.792-16.406 11.61 0 21.882 2.534 30.78 7.595 8.907 5.06 15.783 12.31 20.613 21.753 4.837 9.43 7.248 20.462 7.248 33.077M484.65 180.222h40.815V59.128H484.65v121.094zM484.648 44.48h40.816V17.19h-40.816v27.29zM608.155 149.336c5.51 0 12.072-1.4 19.728-4.178v30.47c-5.503 2.417-10.734 4.15-15.707 5.175-4.972 1.04-10.808 1.556-17.486 1.556-13.703 0-23.58-3.445-29.647-10.32-6.04-6.875-9.07-17.432-9.07-31.678v-49.92H541.68V59.14h14.294V28.214l41.128-7.153V59.14h26.04v31.305H597.1v47.133c0 7.84 3.69 11.76 11.053 11.76M702.616 149.336c5.51 0 12.073-1.4 19.73-4.178v30.47c-5.497 2.417-10.735 4.15-15.708 5.175-4.98 1.04-10.794 1.556-17.486 1.556-13.702 0-23.58-3.445-29.634-10.32-6.052-6.875-9.082-17.432-9.082-31.678v-49.92h-14.3V59.14h14.3V27.746l41.12-6.685V59.14h26.054v31.305h-26.053v47.133c0 7.84 3.69 11.76 11.06 11.76M773.844 104.66c.557-6.63 2.453-11.487 5.686-14.59 3.248-3.1 7.256-4.648 12.052-4.648 5.23 0 9.39 1.74 12.473 5.244 3.104 3.485 4.72 8.153 4.85 13.995h-35.06zM831.4 71.265c-9.703-9.51-23.466-14.273-41.272-14.273-18.716 0-33.118 5.47-43.214 16.407-10.088 10.938-15.135 26.63-15.135 47.08 0 19.802 5.454 35.074 16.337 45.794 10.89 10.72 26.182 16.088 45.876 16.088 9.457 0 17.596-.645 24.416-1.93 6.78-1.27 13.342-3.566 19.708-6.88l-6.27-27.29c-4.627 1.888-9.03 3.342-13.187 4.3-6.004 1.393-12.594 2.092-19.77 2.092-7.865 0-14.074-1.922-18.626-5.767-4.552-3.852-6.977-9.165-7.255-15.93h72.947v-18.595c0-17.887-4.85-31.59-14.558-41.094M205.816 104.66c.557-6.63 2.453-11.487 5.686-14.59 3.24-3.1 7.255-4.648 12.06-4.648 5.216 0 9.374 1.74 12.465 5.244 3.104 3.485 4.714 8.153 4.857 13.995h-35.068zm57.56-33.396c-9.707-9.51-23.464-14.273-41.276-14.273-18.723 0-33.118 5.47-43.207 16.407-10.088 10.938-15.142 26.63-15.142 47.08 0 19.802 5.45 35.074 16.346 45.794 10.883 10.72 26.175 16.088 45.87 16.088 9.456 0 17.595-.645 24.415-1.93 6.78-1.27 13.344-3.566 19.716-6.88l-6.277-27.29c-4.628 1.888-9.03 3.342-13.18 4.3-6.02 1.393-12.602 2.092-19.777 2.092-7.86 0-14.075-1.922-18.627-5.767-4.56-3.852-6.977-9.165-7.255-15.93h72.95v-18.595c0-17.887-4.852-31.59-14.553-41.094" fill="#000000"/>
            </svg>