<svg width="1296" height="428" viewBox="0 0 1296 428" fill="none" xmlns="http://www.w3.org/2000/svg">
<path d="M2.998 145.779C-4.62927 124.989 6.04102 101.953 26.8308 94.3254L246.228 13.8337C267.018 6.20639 290.054 16.8767 297.681 37.6664C305.309 58.4562 294.638 81.4927 273.849 89.1199L54.4515 169.612C33.6618 177.239 10.6253 166.569 2.998 145.779Z" fill="black"/>
<path d="M2.998 382.494C-4.62927 361.704 6.04102 338.668 26.8308 331.041L246.228 250.549C267.018 242.922 290.054 253.592 297.681 274.382C305.309 295.171 294.638 318.208 273.849 325.835L54.4515 406.327C33.6618 413.954 10.6253 403.284 2.998 382.494Z" fill="black"/>
<path d="M437.159 34.6901H491.656V49.9534H457.353V64.5349H489.611V79.7983H457.353V97.7366H492.81V113H437.159V34.6901Z" fill="black"/>
<path d="M539.282 69.4129C543.513 69.4129 546.538 68.6261 548.356 67.0526C550.21 65.479 551.136 62.8914 551.136 59.2898C551.136 55.7231 550.21 53.1704 548.356 51.6319C546.538 50.0933 543.513 49.324 539.282 49.324H530.785V69.4129H539.282ZM530.785 83.365V113H510.591V34.6901H541.433C551.748 34.6901 559.301 36.421 564.092 39.8828C568.917 43.3445 571.33 48.817 571.33 56.3C571.33 61.4752 570.071 65.7238 567.553 69.0457C565.071 72.3677 561.312 74.8154 556.276 76.3889C559.039 77.0183 561.504 78.452 563.672 80.6899C565.875 82.8929 568.096 86.2498 570.333 90.7606L581.296 113H559.791L550.245 93.5405C548.321 89.6242 546.363 86.9491 544.37 85.5155C542.412 84.0818 539.789 83.365 536.502 83.365H530.785Z" fill="black"/>
<path d="M593.36 34.6901H613.553V113H593.36V34.6901Z" fill="black"/>
<path d="M695.43 108.699C691.723 110.622 687.859 112.073 683.838 113.052C679.817 114.032 675.621 114.521 671.25 114.521C658.207 114.521 647.874 110.884 640.251 103.611C632.628 96.303 628.817 86.4071 628.817 73.9237C628.817 61.4053 632.628 51.5095 640.251 44.2362C647.874 36.928 658.207 33.2739 671.25 33.2739C675.621 33.2739 679.817 33.7634 683.838 34.7425C687.859 35.7216 691.723 37.1728 695.43 39.096V55.3035C691.688 52.7508 687.999 50.8801 684.363 49.6912C680.726 48.5023 676.897 47.9078 672.876 47.9078C665.673 47.9078 660.008 50.2157 655.882 54.8314C651.755 59.4471 649.692 65.8112 649.692 73.9237C649.692 82.0012 651.755 88.3478 655.882 92.9636C660.008 97.5793 665.673 99.8872 672.876 99.8872C676.897 99.8872 680.726 99.2927 684.363 98.1038C687.999 96.9149 691.688 95.0441 695.43 92.4915V108.699Z" fill="black"/>
<path d="M768.705 37.1553V53.7299C764.404 51.8067 760.207 50.3555 756.116 49.3765C752.025 48.3974 748.161 47.9078 744.524 47.9078C739.699 47.9078 736.132 48.5722 733.824 49.901C731.517 51.2297 730.363 53.2928 730.363 56.0902C730.363 58.1883 731.132 59.8318 732.67 61.0207C734.244 62.1746 737.076 63.1712 741.168 64.0104L749.77 65.7413C758.477 67.4897 764.666 70.1472 768.337 73.7139C772.009 77.2806 773.845 82.3509 773.845 88.9248C773.845 97.5618 771.275 103.996 766.134 108.227C761.029 112.423 753.214 114.521 742.689 114.521C737.723 114.521 732.74 114.049 727.74 113.105C722.74 112.161 717.739 110.762 712.739 108.909V91.8621C717.739 94.5196 722.565 96.5303 727.216 97.894C731.901 99.2228 736.412 99.8872 740.748 99.8872C745.154 99.8872 748.528 99.1528 750.871 97.6842C753.214 96.2156 754.385 94.1175 754.385 91.39C754.385 88.9423 753.581 87.054 751.973 85.7253C750.399 84.3965 747.234 83.2076 742.479 82.1586L734.664 80.4277C726.831 78.7492 721.096 76.0742 717.46 72.4026C713.858 68.731 712.057 63.7831 712.057 57.5589C712.057 49.7611 714.575 43.7642 719.61 39.568C724.645 35.3719 731.884 33.2739 741.325 33.2739C745.626 33.2739 750.049 33.6061 754.595 34.2705C759.141 34.8999 763.844 35.8615 768.705 37.1553Z" fill="black"/>
<path d="M841.297 37.1553V53.7299C836.996 51.8067 832.8 50.3555 828.709 49.3765C824.618 48.3974 820.754 47.9078 817.117 47.9078C812.292 47.9078 808.725 48.5722 806.417 49.901C804.109 51.2297 802.955 53.2928 802.955 56.0902C802.955 58.1883 803.725 59.8318 805.263 61.0207C806.837 62.1746 809.669 63.1712 813.76 64.0104L822.362 65.7413C831.069 67.4897 837.259 70.1472 840.93 73.7139C844.602 77.2806 846.438 82.3509 846.438 88.9248C846.438 97.5618 843.867 103.996 838.727 108.227C833.622 112.423 825.807 114.521 815.281 114.521C810.316 114.521 805.333 114.049 800.333 113.105C795.332 112.161 790.332 110.762 785.332 108.909V91.8621C790.332 94.5196 795.158 96.5303 799.808 97.894C804.494 99.2228 809.005 99.8872 813.341 99.8872C817.747 99.8872 821.121 99.1528 823.464 97.6842C825.807 96.2156 826.978 94.1175 826.978 91.39C826.978 88.9423 826.174 87.054 824.565 85.7253C822.992 84.3965 819.827 83.2076 815.072 82.1586L807.256 80.4277C799.424 78.7492 793.689 76.0742 790.052 72.4026C786.451 68.731 784.65 63.7831 784.65 57.5589C784.65 49.7611 787.167 43.7642 792.203 39.568C797.238 35.3719 804.476 33.2739 813.918 33.2739C818.219 33.2739 822.642 33.6061 827.188 34.2705C831.734 34.8999 836.437 35.8615 841.297 37.1553Z" fill="black"/>
<path d="M899.99 47.9078C893.836 47.9078 889.063 50.1807 885.671 54.7265C882.279 59.2723 880.583 65.6714 880.583 73.9237C880.583 82.1411 882.279 88.5227 885.671 93.0685C889.063 97.6143 893.836 99.8872 899.99 99.8872C906.18 99.8872 910.97 97.6143 914.362 93.0685C917.754 88.5227 919.45 82.1411 919.45 73.9237C919.45 65.6714 917.754 59.2723 914.362 54.7265C910.97 50.1807 906.18 47.9078 899.99 47.9078ZM899.99 33.2739C912.579 33.2739 922.44 36.8755 929.573 44.0789C936.706 51.2822 940.273 61.2305 940.273 73.9237C940.273 86.582 936.706 96.5128 929.573 103.716C922.44 110.919 912.579 114.521 899.99 114.521C887.437 114.521 877.576 110.919 870.408 103.716C863.274 96.5128 859.708 86.582 859.708 73.9237C859.708 61.2305 863.274 51.2822 870.408 44.0789C877.576 36.8755 887.437 33.2739 899.99 33.2739Z" fill="black"/>
<path d="M955.589 34.6901H978.143L1006.62 88.4003V34.6901H1025.77V113H1003.21L974.734 59.2898V113H955.589V34.6901Z" fill="black"/>
<path d="M437.159 174.69H462.861L480.694 216.599L498.632 174.69H524.281V253H505.189V195.723L487.145 237.946H474.347L456.304 195.723V253H437.159V174.69Z" fill="black"/>
<path d="M591.576 238.733H560L555.018 253H534.719L563.725 174.69H587.8L616.805 253H596.507L591.576 238.733ZM565.036 224.204H586.488L575.788 193.048L565.036 224.204Z" fill="black"/>
<path d="M627.243 174.69H649.797L678.278 228.4V174.69H697.423V253H674.869L646.388 199.29V253H627.243V174.69Z" fill="black"/>
<path d="M764.666 238.733H733.09L728.107 253H707.808L736.814 174.69H760.889L789.895 253H769.596L764.666 238.733ZM738.125 224.204H759.578L748.878 193.048L738.125 224.204Z" fill="black"/>
<path d="M870.723 247.178C865.687 249.626 860.46 251.461 855.04 252.685C849.62 253.909 844.025 254.521 838.255 254.521C825.212 254.521 814.879 250.884 807.256 243.611C799.633 236.303 795.822 226.407 795.822 213.924C795.822 201.3 799.703 191.37 807.466 184.131C815.229 176.893 825.859 173.274 839.357 173.274C844.567 173.274 849.55 173.763 854.305 174.743C859.096 175.722 863.607 177.173 867.838 179.096V195.303C863.467 192.821 859.113 190.967 854.777 189.744C850.476 188.52 846.158 187.908 841.822 187.908C833.779 187.908 827.573 190.163 823.202 194.674C818.866 199.15 816.698 205.566 816.698 213.924C816.698 222.211 818.796 228.61 822.992 233.121C827.188 237.632 833.15 239.887 840.878 239.887C842.976 239.887 844.916 239.765 846.7 239.52C848.518 239.24 850.144 238.821 851.578 238.261V223.05H839.252V209.518H870.723V247.178Z" fill="black"/>
<path d="M888.556 174.69H943.053V189.953H908.75V204.535H941.007V219.798H908.75V237.737H944.207V253H888.556V174.69Z" fill="black"/>
<path d="M961.988 174.69H987.689L1005.52 216.599L1023.46 174.69H1049.11V253H1030.02V195.723L1011.97 237.946H999.176L981.133 195.723V253H961.988V174.69Z" fill="black"/>
<path d="M1068.88 174.69H1123.38V189.953H1089.08V204.535H1121.34V219.798H1089.08V237.737H1124.53V253H1068.88V174.69Z" fill="black"/>
<path d="M1142.32 174.69H1164.87L1193.35 228.4V174.69H1212.5V253H1189.94L1161.46 199.29V253H1142.32V174.69Z" fill="black"/>
<path d="M1222.88 174.69H1295.05V189.953H1269.09V253H1248.9V189.953H1222.88V174.69Z" fill="black"/>
<path d="M499.262 388.699C495.555 390.622 491.691 392.073 487.67 393.052C483.649 394.032 479.453 394.521 475.082 394.521C462.039 394.521 451.706 390.884 444.083 383.611C436.46 376.303 432.648 366.407 432.648 353.924C432.648 341.405 436.46 331.509 444.083 324.236C451.706 316.928 462.039 313.274 475.082 313.274C479.453 313.274 483.649 313.763 487.67 314.743C491.691 315.722 495.555 317.173 499.262 319.096V335.303C495.52 332.751 491.831 330.88 488.195 329.691C484.558 328.502 480.729 327.908 476.708 327.908C469.504 327.908 463.84 330.216 459.713 334.831C455.587 339.447 453.524 345.811 453.524 353.924C453.524 362.001 455.587 368.348 459.713 372.964C463.84 377.579 469.504 379.887 476.708 379.887C480.729 379.887 484.558 379.293 488.195 378.104C491.831 376.915 495.52 375.044 499.262 372.492V388.699Z" fill="black"/>
<path d="M551.818 327.908C545.664 327.908 540.891 330.181 537.499 334.727C534.107 339.272 532.411 345.671 532.411 353.924C532.411 362.141 534.107 368.523 537.499 373.068C540.891 377.614 545.664 379.887 551.818 379.887C558.007 379.887 562.798 377.614 566.19 373.068C569.582 368.523 571.278 362.141 571.278 353.924C571.278 345.671 569.582 339.272 566.19 334.727C562.798 330.181 558.007 327.908 551.818 327.908ZM551.818 313.274C564.406 313.274 574.267 316.876 581.401 324.079C588.534 331.282 592.101 341.23 592.101 353.924C592.101 366.582 588.534 376.513 581.401 383.716C574.267 390.919 564.406 394.521 551.818 394.521C539.265 394.521 529.404 390.919 522.235 383.716C515.102 376.513 511.535 366.582 511.535 353.924C511.535 341.23 515.102 331.282 522.235 324.079C529.404 316.876 539.265 313.274 551.818 313.274Z" fill="black"/>
<path d="M607.417 314.69H629.971L658.452 368.4V314.69H677.596V393H655.042L626.561 339.29V393H607.417V314.69Z" fill="black"/>
<path d="M751.815 317.155V333.73C747.514 331.807 743.318 330.356 739.227 329.376C735.136 328.397 731.272 327.908 727.635 327.908C722.81 327.908 719.243 328.572 716.935 329.901C714.627 331.23 713.473 333.293 713.473 336.09C713.473 338.188 714.243 339.832 715.781 341.021C717.355 342.175 720.187 343.171 724.278 344.01L732.88 345.741C741.587 347.49 747.776 350.147 751.448 353.714C755.12 357.281 756.955 362.351 756.955 368.925C756.955 377.562 754.385 383.996 749.245 388.227C744.14 392.423 736.325 394.521 725.799 394.521C720.834 394.521 715.851 394.049 710.851 393.105C705.85 392.161 700.85 390.762 695.85 388.909V371.862C700.85 374.52 705.675 376.53 710.326 377.894C715.012 379.223 719.523 379.887 723.859 379.887C728.265 379.887 731.639 379.153 733.982 377.684C736.325 376.216 737.496 374.117 737.496 371.39C737.496 368.942 736.692 367.054 735.083 365.725C733.51 364.397 730.345 363.208 725.59 362.159L717.774 360.428C709.942 358.749 704.207 356.074 700.57 352.403C696.969 348.731 695.168 343.783 695.168 337.559C695.168 329.761 697.685 323.764 702.721 319.568C707.756 315.372 714.994 313.274 724.436 313.274C728.737 313.274 733.16 313.606 737.706 314.27C742.252 314.9 746.955 315.861 751.815 317.155Z" fill="black"/>
<path d="M774.737 314.69H794.93V361.634C794.93 368.103 795.979 372.736 798.077 375.534C800.21 378.296 803.672 379.677 808.463 379.677C813.288 379.677 816.75 378.296 818.848 375.534C820.981 372.736 822.048 368.103 822.048 361.634V314.69H842.241V361.634C842.241 372.719 839.462 380.971 833.902 386.391C828.342 391.811 819.862 394.521 808.463 394.521C797.098 394.521 788.636 391.811 783.076 386.391C777.516 380.971 774.737 372.719 774.737 361.634V314.69Z" fill="black"/>
<path d="M862.016 314.69H882.209V377.737H917.667V393H862.016V314.69Z" fill="black"/>
<path d="M903.347 314.69H975.52V329.953H949.557V393H929.363V329.953H903.347V314.69Z" fill="black"/>
<path d="M986.011 314.69H1006.2V393H986.011V314.69Z" fill="black"/>
<path d="M1025.98 314.69H1048.53L1077.01 368.4V314.69H1096.16V393H1073.6L1045.12 339.29V393H1025.98V314.69Z" fill="black"/>
<path d="M1186.27 387.178C1181.23 389.626 1176.01 391.461 1170.59 392.685C1165.17 393.909 1159.57 394.521 1153.8 394.521C1140.76 394.521 1130.43 390.884 1122.8 383.611C1115.18 376.303 1111.37 366.407 1111.37 353.924C1111.37 341.3 1115.25 331.37 1123.01 324.131C1130.78 316.893 1141.41 313.274 1154.9 313.274C1160.11 313.274 1165.1 313.763 1169.85 314.743C1174.64 315.722 1179.15 317.173 1183.39 319.096V335.303C1179.01 332.821 1174.66 330.967 1170.32 329.744C1166.02 328.52 1161.71 327.908 1157.37 327.908C1149.33 327.908 1143.12 330.163 1138.75 334.674C1134.41 339.15 1132.25 345.566 1132.25 353.924C1132.25 362.211 1134.34 368.61 1138.54 373.121C1142.74 377.632 1148.7 379.887 1156.43 379.887C1158.52 379.887 1160.46 379.765 1162.25 379.52C1164.07 379.24 1165.69 378.821 1167.13 378.261V363.05H1154.8V349.518H1186.27V387.178Z" fill="black"/>
<path d="M2.8105 264.269C-4.81677 243.479 5.85352 220.443 26.6433 212.816L246.04 132.324C266.83 124.697 289.867 135.367 297.494 156.157C305.121 176.946 294.451 199.983 273.661 207.61L54.264 288.102C33.4743 295.729 10.4378 285.059 2.8105 264.269Z" fill="black"/>
<path d="M358.959 0H379.432V427.629H358.959V0Z" fill="black"/>
</svg>
