<svg xmlns="http://www.w3.org/2000/svg" viewBox="0 0 334 40"><defs><style>.cls-1{fill:#1e1e1e;}</style></defs><title>Keanrey_logo_slate_RGB</title><g id="Layer_2" data-name="Layer 2"><g id="Layer_1-2" data-name="Layer 1"><path class="cls-1" d="M118.74,0h-9.08L93.41,40H98.7L103,29.28h22.21L129.53,40H135ZM104.9,24.52,112.78,5h2.68l7.84,19.51Z"/><path class="cls-1" d="M316.46,23.37V40h-5.21V23.31L293.62,0h6.24l13.95,18.52L327.94,0H334Z"/><path class="cls-1" d="M82.43,40H49.61V0H82.43V4.71H54.53V17.63H79.11v4.74H54.53V35.29h27.9Z"/><path class="cls-1" d="M283.45,40H250.62V0h32.83V4.71H255.54V17.63h24.58v4.74H255.54V35.29h27.91Z"/><path class="cls-1" d="M233.09,40h-4.48L202,9l0,31h-5.05V0h4.48L228,31V0h5.05Z"/><polygon class="cls-1" points="36.23 0 29.38 0 11.94 17.5 5.05 17.5 5.05 0 0 0 0 40 5.05 40 5.05 22.5 11.92 22.5 29.38 40 36.23 40 16.61 20 36.23 0"/><path class="cls-1" d="M183.2,40,169.86,22.29a15.77,15.77,0,0,0,2.85-.38c4.91-1.55,8.1-5.32,8.1-10.74,0-7.28-5-11.17-14-11.17H147.15V40h5V22.37h11.5L177,40Zm-31-35.29h14.51c5.8,0,8.89,2.21,8.89,6.46s-3,6.46-8.89,6.46H152.18Z"/></g></g></svg>